<svg id="logo-svg" width="400" height="400" viewBox="0 0 200 200" xmlns="http://www.w3.org/2000/svg">
      <defs>
        <radialGradient id="sphereGrad" cx="38%" cy="32%" r="65%"><stop offset="0%" stop-color="#67E8F9"></stop><stop offset="45%" stop-color="#38BDF8"></stop><stop offset="100%" stop-color="#312E81"></stop></radialGradient>
        <radialGradient id="glossGrad" cx="35%" cy="28%" r="45%">
          <stop offset="0%" stop-color="#FFFFFF" stop-opacity="0.55"></stop>
          <stop offset="100%" stop-color="#FFFFFF" stop-opacity="0"></stop>
        </radialGradient>
        <radialGradient id="innerShadow" cx="60%" cy="70%" r="55%">
          <stop offset="0%" stop-color="#1E1B4B" stop-opacity="0.35"></stop>
          <stop offset="100%" stop-color="#1E1B4B" stop-opacity="0"></stop>
        </radialGradient>
        <radialGradient id="rimLight" cx="50%" cy="95%" r="50%">
          <stop offset="0%" stop-color="#67E8F9" stop-opacity="0.3"></stop>
          <stop offset="100%" stop-color="#67E8F9" stop-opacity="0"></stop>
        </radialGradient>
        <filter id="softBlur">
          <feGaussianBlur stdDeviation="3"></feGaussianBlur>
        </filter>
        <clipPath id="sphereClip">
          <circle cx="100" cy="100" r="78"></circle>
        </clipPath>
      </defs>

      <circle cx="100" cy="106" r="76" fill="#0E1844" fill-opacity="0.18" filter="url(#softBlur)"></circle>

      <circle cx="100" cy="100" r="78" fill="url(#sphereGrad)"></circle>

      <circle cx="100" cy="100" r="78" fill="url(#innerShadow)" clip-path="url(#sphereClip)"></circle>
      <circle cx="100" cy="100" r="78" fill="url(#rimLight)" clip-path="url(#sphereClip)"></circle>

      <ellipse cx="100" cy="100" rx="78" ry="78" fill="none" stroke="#FFFFFF" stroke-width="0.6" stroke-opacity="0.25"></ellipse>

      <circle cx="100" cy="100" r="78" fill="url(#glossGrad)" clip-path="url(#sphereClip)"></circle>

      <g clip-path="url(#sphereClip)">
        <path id="wave-path" d="M 52 108
             C 62 108, 68 94, 78 94
             C 88 94, 90 114, 100 108
             C 110 102, 114 90, 124 94
             C 134 98, 138 106, 148 104" fill="none" stroke="#FFFFFF" stroke-width="3" stroke-linecap="round" stroke-linejoin="round" stroke-opacity="0.92"></path>

        <path d="M 52 108
             C 62 108, 68 94, 78 94
             C 88 94, 90 114, 100 108
             C 110 102, 114 90, 124 94
             C 134 98, 138 106, 148 104" fill="none" stroke="#67E8F9" stroke-width="1" stroke-linecap="round" stroke-opacity="0.5"></path>
      </g>

      <circle cx="72" cy="68" r="14" fill="#FFFFFF" fill-opacity="0.12"></circle>
      <ellipse cx="100" cy="100" rx="78" ry="78" fill="none" stroke="#FFFFFF" stroke-width="1" stroke-opacity="0.15"></ellipse>
    </svg>